<svg width="1526" height="842" viewBox="0 0 1526 842" fill="none" xmlns="http://www.w3.org/2000/svg">
<g opacity="0.75">
<path d="M608.408 -338.303C655.051 -352.469 710.217 -318.084 743.534 -275.188C776.852 -232.292 788.313 -179.832 815.577 -122.658C842.841 -65.4849 885.899 -2.54534 866.813 31.9695C848.227 65.9084 767.981 72.9507 711.007 79.2228C653.532 86.071 620.471 119.527 561.921 136.996C503.872 153.89 461.23 151.991 437.186 125.506C413.142 99.0207 406.056 21.1464 429.331 -42.1759C453.597 -105.598 467.829 -152.239 494.501 -206.968C521.172 -261.696 560.774 -324.037 608.408 -338.303Z" fill="#56A9AD"/>
<path d="M1633.64 -670.254C1762.78 -636.023 1829.42 -500.377 1832.41 -377.274C1835.4 -254.171 1772.96 -141.665 1738.25 0.140189C1703.53 141.946 1694.77 314.998 1593.58 354.43C1494.49 393.44 1301.49 302.301 1162.32 239.96C1021.05 178.041 890.099 197.347 728.525 153.796C569.047 109.823 475.986 50.8959 466.301 -29.6219C456.616 -110.14 571.724 -264.254 730.869 -351.849C892.418 -438.342 1003.07 -506.644 1155.41 -573.835C1307.75 -641.027 1502.1 -705.586 1633.64 -670.254Z" fill="black"/>
</g>
</svg>
